<?xml version="1.0" standalone="no"?>
<!DOCTYPE svg PUBLIC "-//W3C//DTD SVG 20010904//EN"
 "http://www.w3.org/TR/2001/REC-SVG-20010904/DTD/svg10.dtd">
<svg version="1.0" xmlns="http://www.w3.org/2000/svg"
 width="337.000000pt" height="232.000000pt" viewBox="0 0 337.000000 232.000000"
 preserveAspectRatio="xMidYMid meet">

<g transform="translate(0.000000,232.000000) scale(0.100000,-0.100000)"
fill="#000000" stroke="none">
<path d="M2185 1964 c-134 -33 -254 -78 -241 -91 3 -4 28 -6 54 -5 46 2 90
-14 65 -24 -38 -16 -97 -70 -110 -102 -14 -34 -14 -40 3 -72 13 -24 36 -43 74
-62 50 -25 65 -27 165 -27 173 0 281 34 362 115 45 45 60 91 49 146 -7 37 -43
70 -118 109 -52 26 -66 29 -150 28 -51 -1 -120 -8 -153 -15z"/>
<path d="M1120 1745 c-126 -27 -310 -101 -310 -124 0 -28 81 -25 280 11 117
21 184 21 432 2 78 -6 88 -5 94 11 5 12 1 22 -12 31 -10 7 -23 17 -29 21 -5 5
-38 21 -73 36 -59 25 -72 27 -195 26 -73 -1 -157 -7 -187 -14z"/>
<path d="M224 1524 c-12 -3 -31 -16 -44 -28 -18 -20 -20 -27 -9 -43 6 -11 20
-25 30 -31 31 -20 140 -32 285 -32 101 0 144 -4 152 -12 5 -7 60 -112 121
-233 176 -349 247 -477 275 -502 32 -27 80 -29 271 -13 66 5 266 21 445 35
179 14 381 29 450 35 69 5 168 12 220 15 145 8 263 25 287 41 24 15 67 94 133
243 21 47 52 118 70 156 72 158 120 274 120 289 0 7 -9 21 -21 32 -24 22 -91
23 -288 5 -64 -6 -181 -15 -261 -21 -234 -17 -535 -39 -670 -50 -162 -14 -328
-27 -575 -45 -110 -8 -230 -17 -267 -20 -78 -6 -90 1 -129 80 -30 60 -47 70
-134 84 -75 11 -426 22 -461 15z m2388 -194 c-2 -20 -54 -191 -115 -380 -17
-54 -34 -68 -90 -74 -107 -13 -216 -26 -327 -40 -63 -8 -160 -20 -215 -26
-197 -21 -272 -30 -395 -46 -69 -9 -136 -14 -150 -13 -29 5 -71 59 -194 251
-49 76 -86 144 -83 152 3 7 23 16 44 20 47 8 315 42 443 56 52 6 129 15 170
20 41 6 134 17 205 25 72 8 164 20 205 25 41 5 131 16 200 25 69 8 154 19 190
24 99 14 116 11 112 -19z"/>
<path d="M3039 782 c-30 -16 -74 -41 -99 -55 -90 -53 -277 -145 -335 -165
-133 -46 -297 -79 -565 -113 -120 -16 -611 -16 -700 -1 -36 6 -110 18 -165 28
-157 26 -369 86 -510 144 -146 60 -168 50 -52 -25 153 -99 336 -175 537 -223
173 -42 433 -72 615 -72 200 0 510 41 680 91 86 25 246 84 290 107 101 53 244
154 313 222 98 96 94 117 -9 62z"/>
</g>
</svg>
